<svg width="400" height="300" viewBox="0 0 400 300" fill="none" xmlns="http://www.w3.org/2000/svg">
  <!-- Background -->
  <rect width="400" height="300" fill="#f8fafc"/>
  
  <!-- Person -->
  <circle cx="200" cy="120" r="30" fill="#6366f1"/>
  <rect x="185" y="150" width="30" height="60" rx="15" fill="#6366f1"/>
  <rect x="170" y="160" width="20" height="40" rx="10" fill="#6366f1"/>
  <rect x="210" y="160" width="20" height="40" rx="10" fill="#6366f1"/>
  <rect x="190" y="210" width="15" height="30" rx="7" fill="#6366f1"/>
  <rect x="205" y="210" width="15" height="30" rx="7" fill="#6366f1"/>
  
  <!-- Books -->
  <rect x="100" y="180" width="20" height="40" rx="3" fill="#10b981"/>
  <rect x="125" y="175" width="20" height="45" rx="3" fill="#f59e0b"/>
  <rect x="150" y="185" width="20" height="35" rx="3" fill="#ef4444"/>
  
  <!-- Laptop -->
  <rect x="250" y="160" width="60" height="40" rx="5" fill="#e2e8f0"/>
  <rect x="255" y="165" width="50" height="30" rx="2" fill="#6366f1"/>
  <rect x="270" y="200" width="20" height="3" rx="1" fill="#94a3b8"/>
  
  <!-- Progress Chart -->
  <rect x="50" y="50" width="100" height="60" rx="8" fill="white" stroke="#e2e8f0" stroke-width="2"/>
  <rect x="60" y="70" width="80" height="4" rx="2" fill="#10b981"/>
  <rect x="60" y="80" width="60" height="4" rx="2" fill="#10b981"/>
  <rect x="60" y="90" width="40" height="4" rx="2" fill="#f59e0b"/>
  
  <!-- Task List -->
  <rect x="250" y="50" width="100" height="80" rx="8" fill="white" stroke="#e2e8f0" stroke-width="2"/>
  <circle cx="270" cy="70" r="3" fill="#10b981"/>
  <rect x="280" y="67" width="50" height="2" rx="1" fill="#10b981"/>
  <circle cx="270" cy="85" r="3" fill="#10b981"/>
  <rect x="280" y="82" width="40" height="2" rx="1" fill="#10b981"/>
  <circle cx="270" cy="100" r="3" fill="#f59e0b"/>
  <rect x="280" y="97" width="30" height="2" rx="1" fill="#f59e0b"/>
  
  <!-- Floating Elements -->
  <circle cx="80" cy="80" r="4" fill="#6366f1" opacity="0.6"/>
  <circle cx="320" cy="120" r="3" fill="#10b981" opacity="0.6"/>
  <circle cx="120" cy="140" r="2" fill="#f59e0b" opacity="0.6"/>
</svg>
